<?xml version="1.0" standalone="no"?>
<!DOCTYPE svg PUBLIC "-//W3C//DTD SVG 20010904//EN"
 "http://www.w3.org/TR/2001/REC-SVG-20010904/DTD/svg10.dtd">
<svg version="1.0" xmlns="http://www.w3.org/2000/svg"
 width="973.000000pt" height="973.000000pt" viewBox="0 0 973.000000 973.000000"
 preserveAspectRatio="xMidYMid meet">
<metadata>
Created by potrace 1.14, written by Peter Selinger 2001-2017
</metadata>
<g transform="translate(0.000000,973.000000) scale(0.100000,-0.100000)"
fill="#000000" stroke="none">
<path d="M1550 8736 c0 -22 -5 -25 -42 -28 -36 -2 -44 -7 -46 -25 -3 -20 -10
-23 -44 -23 -31 0 -41 -4 -45 -19 -3 -11 -15 -21 -27 -23 -17 -2 -22 -11 -24
-44 -2 -32 -8 -43 -23 -47 -15 -4 -19 -14 -19 -51 0 -42 -2 -46 -25 -46 l-25
0 0 -3635 0 -3635 25 0 c23 0 25 -4 25 -41 0 -32 4 -42 19 -46 16 -4 21 -15
23 -52 3 -38 7 -47 24 -49 12 -2 24 -12 27 -23 4 -15 14 -19 45 -19 34 0 41
-3 44 -22 2 -19 10 -24 42 -26 23 -2 45 -11 52 -20 12 -16 232 -17 3264 -17
3047 0 3252 1 3264 17 9 12 30 18 77 20 58 3 64 5 67 26 2 14 10 22 24 22 11
0 22 8 25 19 3 11 13 21 24 24 11 3 19 14 19 25 0 14 8 22 22 24 13 2 24 11
27 23 2 11 11 25 20 31 15 11 16 302 16 3724 0 3353 -2 3713 -16 3723 -8 7
-18 20 -22 30 -3 9 -16 17 -27 17 -14 0 -20 7 -20 21 0 12 -8 23 -19 26 -11 3
-21 13 -24 24 -3 11 -14 19 -25 19 -14 0 -22 8 -24 23 -3 20 -9 22 -70 25 -65
3 -68 4 -68 27 l0 25 -3270 0 -3270 0 0 -24z m6030 -4726 l0 -2300 -2740 0
-2740 0 0 2300 0 2300 2740 0 2740 0 0 -2300z"/>
</g>
</svg>
